<svg width="1171" height="147" viewBox="0 0 1171 147" fill="none" xmlns="http://www.w3.org/2000/svg">
<path d="M152.672 102.453V42.6406C152.672 37.7031 152.047 34.6406 150.797 33.4531C149.578 32.2656 146.984 31.5937 143.016 31.4375L142.969 27.5C144.719 27.625 146.656 27.7188 148.781 27.7812C150.938 27.8437 154.281 27.875 158.812 27.875C162.812 27.875 166.25 27.8437 169.125 27.7812C172.031 27.7188 174.547 27.625 176.672 27.5V31.4375C173.203 31.5312 170.875 32.1719 169.688 33.3594C168.531 34.5469 167.953 37 167.953 40.7188V89.8906C167.953 100.328 166.297 107.656 162.984 111.875C159.703 116.094 154.125 118.203 146.25 118.203C141.406 118.203 137.547 117.328 134.672 115.578C131.766 113.828 130.312 111.5 130.312 108.594C130.312 106.938 130.859 105.578 131.953 104.516C133.047 103.453 134.453 102.922 136.172 102.922C137.547 102.922 138.75 103.375 139.781 104.281C140.812 105.219 141.688 106.625 142.406 108.5C142.469 108.656 142.547 108.859 142.641 109.109C143.703 111.984 145.172 113.422 147.047 113.422C149.078 113.422 150.516 112.594 151.359 110.938C152.234 109.281 152.672 106.453 152.672 102.453ZM196.969 71.375C196.969 78 197.688 82.6562 199.125 85.3438C200.594 88 203.047 89.3281 206.484 89.3281C209.797 89.3281 212.172 87.8594 213.609 84.9219C215.078 81.9844 215.812 77.1094 215.812 70.2969C215.812 64.2969 215.062 59.875 213.562 57.0312C212.062 54.1562 209.734 52.7188 206.578 52.7188C203.266 52.7188 200.828 54.2031 199.266 57.1719C197.734 60.1406 196.969 64.875 196.969 71.375ZM182.484 71.1875C182.484 64.5938 184.75 59.2031 189.281 55.0156C193.812 50.7969 199.672 48.6875 206.859 48.6875C213.703 48.6875 219.297 50.7344 223.641 54.8281C228.016 58.8906 230.203 64.0781 230.203 70.3906C230.203 77.2656 227.984 82.8125 223.547 87.0312C219.109 91.25 213.266 93.3594 206.016 93.3594C199.172 93.3594 193.531 91.2812 189.094 87.125C184.688 82.9375 182.484 77.625 182.484 71.1875ZM237.188 92.75C237.25 91.7812 237.297 90.7812 237.328 89.75C237.359 88.6875 237.375 87.3281 237.375 85.6719C237.375 83.9531 237.359 82.5781 237.328 81.5469C237.297 80.4844 237.25 79.4531 237.188 78.4531H240.656C241.625 81.6719 243.344 84.2812 245.812 86.2812C248.312 88.25 251.047 89.2344 254.016 89.2344C256.047 89.2344 257.75 88.7031 259.125 87.6406C260.5 86.5781 261.188 85.2812 261.188 83.75C261.188 82.3125 260.719 81.1406 259.781 80.2344C258.875 79.3281 256.594 78.1875 252.938 76.8125C246.594 74.5 242.5 72.3594 240.656 70.3906C238.812 68.4219 237.891 65.7656 237.891 62.4219C237.891 58.2344 239.172 54.8906 241.734 52.3906C244.328 49.8594 247.812 48.5938 252.188 48.5938C254.406 48.5938 256.5 48.9219 258.469 49.5781C260.469 50.2344 262.141 51.125 263.484 52.25L265.312 49.1094H268.969C268.938 49.8906 268.906 50.7031 268.875 51.5469C268.875 52.3906 268.875 53.6562 268.875 55.3438C268.875 56.9688 268.875 58.2344 268.875 59.1406C268.906 60.0469 268.938 60.9219 268.969 61.7656H265.312C264.188 58.9531 262.547 56.7344 260.391 55.1094C258.234 53.4531 255.844 52.625 253.219 52.625C251.344 52.625 249.812 53.0938 248.625 54.0312C247.469 54.9375 246.891 56.1094 246.891 57.5469C246.891 59.9219 249.453 61.9375 254.578 63.5938C255.828 64 256.781 64.3125 257.438 64.5312C262.219 66.1562 265.703 68.1562 267.891 70.5312C270.078 72.875 271.172 75.8125 271.172 79.3438C271.172 83.5312 269.703 86.9219 266.766 89.5156C263.828 92.0781 259.922 93.3594 255.047 93.3594C252.297 93.3594 249.812 92.9844 247.594 92.2344C245.375 91.5156 243.609 90.5156 242.297 89.2344L240.844 92.75H237.188ZM277.078 92.1875V88.9062C279.297 88.9062 280.891 88.4688 281.859 87.5938C282.828 86.7188 283.312 85.2812 283.312 83.2812V36.2188C283.312 33.8438 282.953 32.3125 282.234 31.625C281.516 30.9063 280 30.5156 277.688 30.4531L277.641 27.125C281.391 26.75 284.859 26.2812 288.047 25.7188C291.234 25.1562 294.109 24.5 296.672 23.75V56.1875C298.766 53.7188 301.078 51.8594 303.609 50.6094C306.141 49.3281 308.859 48.6875 311.766 48.6875C316.172 48.6875 319.469 50.0312 321.656 52.7188C323.875 55.4062 324.984 59.4375 324.984 64.8125V84.9688C324.984 86.4375 325.297 87.4219 325.922 87.9219C326.547 88.3906 328.031 88.7188 330.375 88.9062V92.1875C329.031 92.125 327.672 92.0781 326.297 92.0469C324.922 92.0156 323.203 92 321.141 92C319.297 92 317.125 92.0156 314.625 92.0469C312.125 92.1094 309.25 92.1875 306 92.2812V88.9531C308.219 88.7656 309.656 88.375 310.312 87.7812C311 87.1875 311.344 85.625 311.344 83.0938V64.8125C311.344 61.25 310.875 58.8281 309.938 57.5469C309 56.2656 307.391 55.625 305.109 55.625C302.547 55.625 300.5 56.6562 298.969 58.7188C297.438 60.7812 296.672 63.5938 296.672 67.1562V82.1094C296.672 84.9219 297.016 86.75 297.703 87.5938C298.391 88.4375 299.734 88.875 301.734 88.9062V92.2812C299.953 92.1875 297.469 92.1094 294.281 92.0469C291.094 92.0156 287.219 92 282.656 92C281.844 92 280.312 92.0469 278.062 92.1406C277.625 92.1719 277.297 92.1875 277.078 92.1875ZM340.875 79.7188V60.7812C340.875 57.4688 340.484 55.375 339.703 54.5C338.953 53.625 337.453 53.1406 335.203 53.0469V49.7656H337.5C338.5 49.7656 339.891 49.7812 341.672 49.8125C343.453 49.8438 344.719 49.8594 345.469 49.8594C347.031 49.7344 349.172 49.625 351.891 49.5312C352.891 49.5 353.609 49.4844 354.047 49.4844V78.6406C354.047 81.2031 354.484 83.0938 355.359 84.3125C356.266 85.5312 357.641 86.1406 359.484 86.1406C362.703 86.1406 365.078 84.9062 366.609 82.4375C368.141 79.9375 368.906 76.0781 368.906 70.8594V60.2188C368.906 57.25 368.516 55.3281 367.734 54.4531C366.953 53.5469 365.391 53.0625 363.047 53V49.7656C365.047 49.7031 368.172 49.6562 372.422 49.625C376.672 49.5938 379.922 49.5469 382.172 49.4844V82.1094C382.172 83.6406 382.484 84.6875 383.109 85.25C383.766 85.7812 385.016 86.0469 386.859 86.0469H387.609H388.031V89.6094C385.25 89.8594 382.484 90.25 379.734 90.7812C377.016 91.3125 374.266 91.9688 371.484 92.75H370.078L369.281 84.7812C367.344 87.5 365.031 89.5938 362.344 91.0625C359.688 92.5312 356.859 93.2656 353.859 93.2656C349.422 93.2656 346.141 92.1562 344.016 89.9375C341.922 87.7188 340.875 84.3125 340.875 79.7188ZM418.125 79.0625V68.4688C414.156 69.7188 411.281 71.2188 409.5 72.9688C407.75 74.7188 406.875 76.9375 406.875 79.625C406.875 81.4062 407.297 82.8281 408.141 83.8906C408.984 84.9531 410.094 85.4844 411.469 85.4844C413.281 85.4844 414.844 84.875 416.156 83.6562C417.469 82.4062 418.125 80.875 418.125 79.0625ZM418.219 87.2188C415.844 89.3438 413.562 90.9062 411.375 91.9062C409.188 92.875 406.922 93.3594 404.578 93.3594C401.141 93.3594 398.422 92.3906 396.422 90.4531C394.422 88.4844 393.422 85.8281 393.422 82.4844C393.422 79.1094 394.516 76.3438 396.703 74.1875C398.922 72.0312 403.141 69.7812 409.359 67.4375L416.203 64.9062C417.047 64.625 417.656 64.2344 418.031 63.7344C418.406 63.2031 418.594 62.5156 418.594 61.6719V58.3906C418.594 56.4531 418.125 54.9844 417.188 53.9844C416.281 52.9531 414.953 52.4375 413.203 52.4375C411.891 52.4375 410.719 52.7812 409.688 53.4688C408.656 54.125 407.844 55.0625 407.25 56.2812C407.094 56.625 406.891 57.1094 406.641 57.7344C405.078 61.4531 403.016 63.3125 400.453 63.3125C398.891 63.3125 397.594 62.8125 396.562 61.8125C395.562 60.7812 395.062 59.4844 395.062 57.9219C395.062 55.1094 396.672 52.875 399.891 51.2188C403.109 49.5312 407.484 48.6875 413.016 48.6875C419.078 48.6875 423.625 49.7344 426.656 51.8281C429.719 53.9219 431.25 57.0469 431.25 61.2031V83.8438C431.25 84.8125 431.375 85.5 431.625 85.9062C431.906 86.3125 432.359 86.5156 432.984 86.5156C433.328 86.5156 433.766 86.4062 434.297 86.1875C434.828 85.9375 435.453 85.5781 436.172 85.1094L438.188 87.6875C437.031 89.3438 435.406 90.7031 433.312 91.7656C431.219 92.8281 429.125 93.3594 427.031 93.3594C424.625 93.3594 422.719 92.875 421.312 91.9062C419.906 90.9062 418.875 89.3438 418.219 87.2188ZM492.938 77.6094C492.938 81.2031 493.625 83.7344 495 85.2031C496.375 86.6719 498.703 87.4062 501.984 87.4062C507.516 87.4062 511.578 85.2344 514.172 80.8906C516.797 76.5156 518.109 69.6875 518.109 60.4062C518.109 50.2812 516.422 43.0156 513.047 38.6094C509.672 34.2031 504.188 32 496.594 32C495.25 32 494.297 32.1875 493.734 32.5625C493.203 32.9375 492.938 33.5781 492.938 34.4844V77.6094ZM468.844 92.2812V88.2969C472.406 88.2031 474.75 87.5938 475.875 86.4688C477 85.3438 477.562 83 477.562 79.4375V40.5312C477.562 36.6875 476.969 34.2188 475.781 33.125C474.625 32 472.312 31.4375 468.844 31.4375V27.5938C470.125 27.6562 471.531 27.7031 473.062 27.7344C474.625 27.7656 476.969 27.7812 480.094 27.7812C481.875 27.7812 484.547 27.75 488.109 27.6875C491.672 27.625 494.312 27.5938 496.031 27.5938C508.75 27.5938 518.422 30.5 525.047 36.3125C531.672 42.0938 534.984 50.5469 534.984 61.6719C534.984 66.6094 534.172 71.0312 532.547 74.9375C530.922 78.8125 528.469 82.2031 525.188 85.1094C522.25 87.6719 518.844 89.5156 514.969 90.6406C511.125 91.7344 505.922 92.2812 499.359 92.2812C497.516 92.2812 494.656 92.2344 490.781 92.1406C486.938 92.0469 484.016 92 482.016 92C480.359 92 478.016 92.0312 474.984 92.0938C471.984 92.1875 469.938 92.25 468.844 92.2812ZM555.469 71.375C555.469 78 556.188 82.6562 557.625 85.3438C559.094 88 561.547 89.3281 564.984 89.3281C568.297 89.3281 570.672 87.8594 572.109 84.9219C573.578 81.9844 574.312 77.1094 574.312 70.2969C574.312 64.2969 573.562 59.875 572.062 57.0312C570.562 54.1562 568.234 52.7188 565.078 52.7188C561.766 52.7188 559.328 54.2031 557.766 57.1719C556.234 60.1406 555.469 64.875 555.469 71.375ZM540.984 71.1875C540.984 64.5938 543.25 59.2031 547.781 55.0156C552.312 50.7969 558.172 48.6875 565.359 48.6875C572.203 48.6875 577.797 50.7344 582.141 54.8281C586.516 58.8906 588.703 64.0781 588.703 70.3906C588.703 77.2656 586.484 82.8125 582.047 87.0312C577.609 91.25 571.766 93.3594 564.516 93.3594C557.672 93.3594 552.031 91.2812 547.594 87.125C543.188 82.9375 540.984 77.625 540.984 71.1875ZM593.719 92.2812L593.672 88.625C596.078 88.3438 597.625 87.8594 598.312 87.1719C599 86.4844 599.344 84.9844 599.344 82.6719V61.6719C599.344 58.9531 598.953 57.2031 598.172 56.4219C597.422 55.6094 595.953 55.1719 593.766 55.1094V51.7812C596.453 51.5312 599.156 51.1406 601.875 50.6094C604.625 50.0469 607.406 49.3438 610.219 48.5H611.438L612 57.1719C613.906 54.2969 616.125 52.1406 618.656 50.7031C621.219 49.2344 624.062 48.5 627.188 48.5C630.281 48.5 632.859 49.2031 634.922 50.6094C636.984 51.9844 638.5 54.0312 639.469 56.75C641.469 54 643.703 51.9375 646.172 50.5625C648.672 49.1875 651.438 48.5 654.469 48.5C658.938 48.5 662.172 49.6875 664.172 52.0625C666.203 54.4062 667.219 58.25 667.219 63.5938V82.2969C667.219 85.1406 667.562 86.8906 668.25 87.5469C668.969 88.2031 670.516 88.5781 672.891 88.6719L672.844 92.2812C670.969 92.1875 669.109 92.1094 667.266 92.0469C665.422 92.0156 663.578 92 661.734 92C659.328 92 657.031 92.0156 654.844 92.0469C652.688 92.1094 650.672 92.1875 648.797 92.2812V88.7656C650.953 88.7031 652.406 88.25 653.156 87.4062C653.906 86.5312 654.281 84.8281 654.281 82.2969V62.8906C654.281 60.3281 653.844 58.4531 652.969 57.2656C652.125 56.0469 650.797 55.4375 648.984 55.4375C646.266 55.4375 644.062 56.5938 642.375 58.9062C640.688 61.1875 639.844 64.2188 639.844 68V82.0156C639.844 84.7969 640.188 86.5938 640.875 87.4062C641.562 88.1875 642.891 88.6094 644.859 88.6719L644.812 92.2812C642.844 92.1875 640.922 92.1094 639.047 92.0469C637.172 92.0156 635.328 92 633.516 92C631.297 92 629.172 92.0156 627.141 92.0469C625.109 92.1094 623.219 92.1875 621.469 92.2812L621.422 88.6719C623.578 88.6094 625.016 88.2031 625.734 87.4531C626.453 86.6719 626.812 85.0781 626.812 82.6719V62.4219C626.812 59.9531 626.391 58.1719 625.547 57.0781C624.703 55.9844 623.328 55.4375 621.422 55.4375C618.797 55.4375 616.641 56.6094 614.953 58.9531C613.266 61.2656 612.422 64.2812 612.422 68V82.0156C612.422 84.6719 612.766 86.4062 613.453 87.2188C614.141 88.0312 615.484 88.5 617.484 88.625V92.2812C615.484 92.1875 613.484 92.1094 611.484 92.0469C609.516 92.0156 607.516 92 605.484 92C603.266 92 601.172 92.0156 599.203 92.0469C597.234 92.1094 595.406 92.1875 593.719 92.2812ZM683.25 31.3438C683.25 29.3125 683.953 27.5938 685.359 26.1875C686.766 24.75 688.5 24.0312 690.562 24.0312C692.594 24.0312 694.312 24.75 695.719 26.1875C697.125 27.5938 697.828 29.3125 697.828 31.3438C697.828 33.3438 697.109 35.0625 695.672 36.5C694.266 37.9062 692.562 38.6094 690.562 38.6094C688.531 38.6094 686.797 37.9062 685.359 36.5C683.953 35.0625 683.25 33.3438 683.25 31.3438ZM678.281 92.2812V88.625C680.781 88.5 682.406 88.125 683.156 87.5C683.938 86.875 684.328 85.5625 684.328 83.5625V60.875C684.328 58.625 683.938 57.1406 683.156 56.4219C682.406 55.6719 680.781 55.25 678.281 55.1562L678.234 51.7812C682.328 51.3438 685.906 50.8438 688.969 50.2812C692.031 49.7188 694.547 49.0938 696.516 48.4062H697.922V83.5625C697.922 85.5625 698.297 86.875 699.047 87.5C699.797 88.125 701.438 88.5 703.969 88.625V92.2812C700.844 92.1875 698.297 92.1094 696.328 92.0469C694.359 92.0156 692.906 92 691.969 92C689.531 92 687.156 92.0156 684.844 92.0469C682.562 92.1094 680.375 92.1875 678.281 92.2812ZM709.312 92.2812L709.266 88.8594C711.797 88.6094 713.422 88.1875 714.141 87.5938C714.859 87 715.219 85.5938 715.219 83.375V61.9531C715.219 59.3906 714.828 57.7031 714.047 56.8906C713.266 56.0469 711.672 55.625 709.266 55.625V52.0625C711.953 51.875 714.641 51.5 717.328 50.9375C720.047 50.375 722.797 49.625 725.578 48.6875H727.219L727.828 57.1719C730.016 54.3281 732.422 52.2031 735.047 50.7969C737.672 49.3906 740.531 48.6875 743.625 48.6875C748.031 48.6875 751.359 49.9844 753.609 52.5781C755.859 55.1406 756.984 58.9375 756.984 63.9688V83.375C756.984 85.6875 757.328 87.1406 758.016 87.7344C758.703 88.2969 760.25 88.6562 762.656 88.8125V92.2812C760.438 92.1875 758.281 92.1094 756.188 92.0469C754.125 92.0156 752.125 92 750.188 92C748.5 92 746.656 92.0156 744.656 92.0469C742.656 92.1094 740.5 92.1875 738.188 92.2812V88.8125C740.375 88.8125 741.828 88.4688 742.547 87.7812C743.266 87.0625 743.625 85.5938 743.625 83.375V63.9688C743.625 61.2188 743.141 59.1562 742.172 57.7812C741.234 56.4062 739.812 55.7188 737.906 55.7188C735.094 55.7188 732.828 56.8281 731.109 59.0469C729.422 61.2656 728.578 64.2188 728.578 67.9062V82.8594C728.578 85.2031 728.969 86.7812 729.75 87.5938C730.562 88.375 732.062 88.7969 734.25 88.8594L734.203 92.2812C731.359 92.1875 728.828 92.1094 726.609 92.0469C724.422 92.0156 722.516 92 720.891 92C719.078 92 717.203 92.0156 715.266 92.0469C713.359 92.1094 711.375 92.1875 709.312 92.2812ZM782.578 63.7812C782.578 68.0312 783 71 783.844 72.6875C784.719 74.375 786.188 75.2188 788.25 75.2188C790.469 75.2188 792.016 74.4844 792.891 73.0156C793.766 71.5156 794.203 68.5 794.203 63.9688C794.203 59.5938 793.766 56.5312 792.891 54.7812C792.016 53.0312 790.562 52.1562 788.531 52.1562C786.469 52.1562 784.953 53.0781 783.984 54.9219C783.047 56.7656 782.578 59.7188 782.578 63.7812ZM778.922 77.5156C775.953 76.4531 773.656 74.75 772.031 72.4062C770.438 70.0625 769.641 67.2812 769.641 64.0625C769.641 59.5312 771.375 55.8438 774.844 53C778.312 50.125 782.875 48.6875 788.531 48.6875C790.938 48.6875 793.172 48.9688 795.234 49.5312C797.328 50.0625 799.25 50.875 801 51.9688C802.719 50.5 804.328 49.4375 805.828 48.7812C807.328 48.0938 808.828 47.75 810.328 47.75C812.359 47.75 813.891 48.25 814.922 49.25C815.953 50.2188 816.469 51.6719 816.469 53.6094C816.469 54.6406 816.078 55.5156 815.297 56.2344C814.516 56.9219 813.5 57.2656 812.25 57.2656C811.375 57.2656 810.297 56.6719 809.016 55.4844C807.766 54.2969 806.734 53.7031 805.922 53.7031C805.641 53.7031 805.328 53.7812 804.984 53.9375C804.672 54.0625 804.25 54.2969 803.719 54.6406C804.844 55.9531 805.688 57.3906 806.25 58.9531C806.844 60.5156 807.141 62.2188 807.141 64.0625C807.141 68.9062 805.594 72.5156 802.5 74.8906C799.406 77.2344 794.297 78.6562 787.172 79.1562C784.359 79.375 782.391 79.7969 781.266 80.4219C780.172 81.0469 779.625 82 779.625 83.2812C779.625 85.4688 782.188 86.5938 787.312 86.6562C788.406 86.6875 789.234 86.7031 789.797 86.7031C798.141 86.9219 803.984 88.1719 807.328 90.4531C810.672 92.7344 812.344 96.4844 812.344 101.703C812.344 107.109 810.281 111.25 806.156 114.125C802.031 117.031 796.062 118.484 788.25 118.484C781.938 118.484 776.984 117.469 773.391 115.438C769.797 113.438 768 110.688 768 107.188C768 105.188 768.594 103.5 769.781 102.125C771 100.75 772.453 100.062 774.141 100.062C775.297 100.062 776.312 100.328 777.188 100.859C778.094 101.391 778.734 102.125 779.109 103.062C778.234 103.281 777.516 103.75 776.953 104.469C776.422 105.188 776.156 105.984 776.156 106.859C776.156 109.203 777.281 111.031 779.531 112.344C781.781 113.688 784.906 114.359 788.906 114.359C793.156 114.359 796.609 113.484 799.266 111.734C801.953 110.016 803.297 107.797 803.297 105.078C803.297 102.891 802.453 101.25 800.766 100.156C799.078 99.0625 796.531 98.5156 793.125 98.5156C788.031 98.5156 784.344 98.4062 782.062 98.1875C779.781 97.9688 777.906 97.6094 776.438 97.1094C774.438 96.3906 772.859 95.2188 771.703 93.5938C770.578 91.9688 770.016 90.0938 770.016 87.9688C770.016 85.4375 770.781 83.2656 772.312 81.4531C773.875 79.6406 776.078 78.3281 778.922 77.5156ZM825.188 79.7188V60.7812C825.188 57.4688 824.797 55.375 824.016 54.5C823.266 53.625 821.766 53.1406 819.516 53.0469V49.7656H821.812C822.812 49.7656 824.203 49.7812 825.984 49.8125C827.766 49.8438 829.031 49.8594 829.781 49.8594C831.344 49.7344 833.484 49.625 836.203 49.5312C837.203 49.5 837.922 49.4844 838.359 49.4844V78.6406C838.359 81.2031 838.797 83.0938 839.672 84.3125C840.578 85.5312 841.953 86.1406 843.797 86.1406C847.016 86.1406 849.391 84.9062 850.922 82.4375C852.453 79.9375 853.219 76.0781 853.219 70.8594V60.2188C853.219 57.25 852.828 55.3281 852.047 54.4531C851.266 53.5469 849.703 53.0625 847.359 53V49.7656C849.359 49.7031 852.484 49.6562 856.734 49.625C860.984 49.5938 864.234 49.5469 866.484 49.4844V82.1094C866.484 83.6406 866.797 84.6875 867.422 85.25C868.078 85.7812 869.328 86.0469 871.172 86.0469H871.922H872.344V89.6094C869.562 89.8594 866.797 90.25 864.047 90.7812C861.328 91.3125 858.578 91.9688 855.797 92.75H854.391L853.594 84.7812C851.656 87.5 849.344 89.5938 846.656 91.0625C844 92.5312 841.172 93.2656 838.172 93.2656C833.734 93.2656 830.453 92.1562 828.328 89.9375C826.234 87.7188 825.188 84.3125 825.188 79.7188ZM892.828 64.5312H908.578V63.4062C908.578 59.9062 907.953 57.2344 906.703 55.3906C905.453 53.5469 903.641 52.625 901.266 52.625C898.766 52.625 896.812 53.6094 895.406 55.5781C894.031 57.5156 893.172 60.5 892.828 64.5312ZM917.016 80.9375L920.297 83.8438C918.078 87.0312 915.375 89.4219 912.188 91.0156C909.031 92.5781 905.328 93.3594 901.078 93.3594C894.328 93.3594 888.812 91.3125 884.531 87.2188C880.25 83.0938 878.109 77.8125 878.109 71.375C878.109 64.6562 880.312 59.1875 884.719 54.9688C889.156 50.7188 894.891 48.5938 901.922 48.5938C907.984 48.5938 912.688 50.3281 916.031 53.7969C919.375 57.2344 921.047 62.0625 921.047 68.2812V69.0781H892.828C892.828 69.2969 892.812 69.625 892.781 70.0625C892.75 70.5 892.734 70.7969 892.734 70.9531C892.734 76.2656 893.812 80.3438 895.969 83.1875C898.156 86 901.297 87.4062 905.391 87.4062C906.672 87.4062 907.891 87.2344 909.047 86.8906C910.234 86.5469 911.359 86.0469 912.422 85.3906C913.016 84.9844 913.688 84.4062 914.438 83.6562C915.219 82.9062 916.078 82 917.016 80.9375ZM925.266 92V88.8125L947.625 53.7969H941.859C938.641 53.7969 936.141 54.5625 934.359 56.0938C932.609 57.625 931.406 60.0938 930.75 63.5H926.719L927.75 49.7656H963V53.3281L941.016 87.7812H947.25C951.25 87.7812 954.109 87.0312 955.828 85.5312C957.547 84.0312 958.781 81.2969 959.531 77.3281H963.375L962.438 92H925.266Z" fill="black"/>
<path d="M112 74C112 61.1284 107.566 48.6496 99.4439 38.664C91.3219 28.6784 80.0079 21.7956 67.406 19.1739L56 74H112Z" fill="black"/>
<mask id="path-3-inside-1_2001_2" fill="white">
<path d="M126 69C126 81.786 121.851 94.2487 114.138 104.627C106.425 115.006 95.5398 122.776 83.019 126.838C70.4982 130.901 56.9754 131.052 44.3614 127.269C31.7473 123.487 20.6798 115.962 12.7225 105.758C4.76529 95.5537 0.320672 83.1868 0.0166941 70.4042C-0.287284 57.6216 3.56475 45.0697 11.0285 34.5219C18.4923 23.9742 29.1904 15.964 41.6112 11.6231C54.0321 7.28223 67.5477 6.83014 80.2484 10.3307L63 69H126Z"/>
</mask>
<path d="M126 69C126 81.786 121.851 94.2487 114.138 104.627C106.425 115.006 95.5398 122.776 83.019 126.838C70.4982 130.901 56.9754 131.052 44.3614 127.269C31.7473 123.487 20.6798 115.962 12.7225 105.758C4.76529 95.5537 0.320672 83.1868 0.0166941 70.4042C-0.287284 57.6216 3.56475 45.0697 11.0285 34.5219C18.4923 23.9742 29.1904 15.964 41.6112 11.6231C54.0321 7.28223 67.5477 6.83014 80.2484 10.3307L63 69H126Z" stroke="black" stroke-width="22" mask="url(#path-3-inside-1_2001_2)"/>
</svg>
